<?xml version="1.0" encoding="utf-8" standalone="no"?>
<!DOCTYPE svg PUBLIC "-//W3C//DTD SVG 1.1//EN"
  "http://www.w3.org/Graphics/SVG/1.1/DTD/svg11.dtd">
<svg xmlns:xlink="http://www.w3.org/1999/xlink" width="648pt" height="648pt" viewBox="0 0 648 648" xmlns="http://www.w3.org/2000/svg" version="1.1">
 <metadata>
  <rdf:RDF xmlns:dc="http://purl.org/dc/elements/1.1/" xmlns:cc="http://creativecommons.org/ns#" xmlns:rdf="http://www.w3.org/1999/02/22-rdf-syntax-ns#">
   <cc:Work>
    <dc:type rdf:resource="http://purl.org/dc/dcmitype/StillImage"/>
    <dc:date>2024-07-30T14:55:46.634970</dc:date>
    <dc:format>image/svg+xml</dc:format>
    <dc:creator>
     <cc:Agent>
      <dc:title>Matplotlib v3.6.3, https://matplotlib.org/</dc:title>
     </cc:Agent>
    </dc:creator>
   </cc:Work>
  </rdf:RDF>
 </metadata>
 <defs>
  <style type="text/css">*{stroke-linejoin: round; stroke-linecap: butt}</style>
 </defs>
 <g id="figure_1">
  <g id="patch_1">
   <path d="M 0 648 
L 648 648 
L 648 0 
L 0 0 
z
" style="fill: #ffffff"/>
  </g>
  <g id="axes_1">
   <g id="patch_2">
    <path d="M 42.1 620.12 
L 616.917273 620.12 
L 616.917273 25.44 
L 42.1 25.44 
z
" style="fill: #ffffff"/>
   </g>
   <g id="PathCollection_1">
    <defs>
     <path id="mab89816fa1" d="M 0 3 
C 0.795609 3 1.55874 2.683901 2.12132 2.12132 
C 2.683901 1.55874 3 0.795609 3 0 
C 3 -0.795609 2.683901 -1.55874 2.12132 -2.12132 
C 1.55874 -2.683901 0.795609 -3 0 -3 
C -0.795609 -3 -1.55874 -2.683901 -2.12132 -2.12132 
C -2.683901 -1.55874 -3 -0.795609 -3 0 
C -3 0.795609 -2.683901 1.55874 -2.12132 2.12132 
C -1.55874 2.683901 -0.795609 3 0 3 
z
" style="stroke: #000000"/>
    </defs>
    <g clip-path="url(#p1aef5f60b9)">
     <use xlink:href="#mab89816fa1" x="102.080724" y="372.039297" style="stroke: #000000"/>
     <use xlink:href="#mab89816fa1" x="183.310144" y="433.030738" style="stroke: #000000"/>
     <use xlink:href="#mab89816fa1" x="113.16054" y="397.956473" style="stroke: #000000"/>
     <use xlink:href="#mab89816fa1" x="133.17836" y="410.588089" style="stroke: #000000"/>
     <use xlink:href="#mab89816fa1" x="476.607817" y="593.089091" style="stroke: #000000"/>
     <use xlink:href="#mab89816fa1" x="145.361941" y="408.471952" style="stroke: #000000"/>
     <use xlink:href="#mab89816fa1" x="101.239169" y="390.343097" style="stroke: #000000"/>
     <use xlink:href="#mab89816fa1" x="217.169059" y="411.028463" style="stroke: #000000"/>
     <use xlink:href="#mab89816fa1" x="465.429828" y="52.470909" style="stroke: #000000"/>
     <use xlink:href="#mab89816fa1" x="590.789215" y="448.700538" style="stroke: #000000"/>
     <use xlink:href="#mab89816fa1" x="121.215405" y="400.441879" style="stroke: #000000"/>
     <use xlink:href="#mab89816fa1" x="111.923476" y="277.035221" style="stroke: #000000"/>
     <use xlink:href="#mab89816fa1" x="130.111344" y="405.91844" style="stroke: #000000"/>
     <use xlink:href="#mab89816fa1" x="68.228058" y="350.429228" style="stroke: #000000"/>
     <use xlink:href="#mab89816fa1" x="112.88554" y="396.508182" style="stroke: #000000"/>
     <use xlink:href="#mab89816fa1" x="122.036794" y="386.737548" style="stroke: #000000"/>
     <use xlink:href="#mab89816fa1" x="143.153422" y="396.554488" style="stroke: #000000"/>
    </g>
   </g>
   <g id="matplotlib.axis_1">
    <g id="xtick_1">
     <g id="line2d_1">
      <defs>
       <path id="m1f3aab1067" d="M 0 0 
L 0 3.5 
" style="stroke: #000000; stroke-width: 0.8"/>
      </defs>
      <g>
       <use xlink:href="#m1f3aab1067" x="75.646162" y="620.12" style="stroke: #000000; stroke-width: 0.8"/>
      </g>
     </g>
     <g id="text_1">
      <!-- −0.1 -->
      <g transform="translate(63.504755 634.718438) scale(0.1 -0.1)">
       <defs>
        <path id="DejaVuSans-2212" d="M 678 2272 
L 4684 2272 
L 4684 1741 
L 678 1741 
L 678 2272 
z
" transform="scale(0.015625)"/>
        <path id="DejaVuSans-30" d="M 2034 4250 
Q 1547 4250 1301 3770 
Q 1056 3291 1056 2328 
Q 1056 1369 1301 889 
Q 1547 409 2034 409 
Q 2525 409 2770 889 
Q 3016 1369 3016 2328 
Q 3016 3291 2770 3770 
Q 2525 4250 2034 4250 
z
M 2034 4750 
Q 2819 4750 3233 4129 
Q 3647 3509 3647 2328 
Q 3647 1150 3233 529 
Q 2819 -91 2034 -91 
Q 1250 -91 836 529 
Q 422 1150 422 2328 
Q 422 3509 836 4129 
Q 1250 4750 2034 4750 
z
" transform="scale(0.015625)"/>
        <path id="DejaVuSans-2e" d="M 684 794 
L 1344 794 
L 1344 0 
L 684 0 
L 684 794 
z
" transform="scale(0.015625)"/>
        <path id="DejaVuSans-31" d="M 794 531 
L 1825 531 
L 1825 4091 
L 703 3866 
L 703 4441 
L 1819 4666 
L 2450 4666 
L 2450 531 
L 3481 531 
L 3481 0 
L 794 0 
L 794 531 
z
" transform="scale(0.015625)"/>
       </defs>
       <use xlink:href="#DejaVuSans-2212"/>
       <use xlink:href="#DejaVuSans-30" x="83.789062"/>
       <use xlink:href="#DejaVuSans-2e" x="147.412109"/>
       <use xlink:href="#DejaVuSans-31" x="179.199219"/>
      </g>
     </g>
    </g>
    <g id="xtick_2">
     <g id="line2d_2">
      <g>
       <use xlink:href="#m1f3aab1067" x="196.345931" y="620.12" style="stroke: #000000; stroke-width: 0.8"/>
      </g>
     </g>
     <g id="text_2">
      <!-- 0.0 -->
      <g transform="translate(188.394369 634.718438) scale(0.1 -0.1)">
       <use xlink:href="#DejaVuSans-30"/>
       <use xlink:href="#DejaVuSans-2e" x="63.623047"/>
       <use xlink:href="#DejaVuSans-30" x="95.410156"/>
      </g>
     </g>
    </g>
    <g id="xtick_3">
     <g id="line2d_3">
      <g>
       <use xlink:href="#m1f3aab1067" x="317.045701" y="620.12" style="stroke: #000000; stroke-width: 0.8"/>
      </g>
     </g>
     <g id="text_3">
      <!-- 0.1 -->
      <g transform="translate(309.094139 634.718438) scale(0.1 -0.1)">
       <use xlink:href="#DejaVuSans-30"/>
       <use xlink:href="#DejaVuSans-2e" x="63.623047"/>
       <use xlink:href="#DejaVuSans-31" x="95.410156"/>
      </g>
     </g>
    </g>
    <g id="xtick_4">
     <g id="line2d_4">
      <g>
       <use xlink:href="#m1f3aab1067" x="437.745471" y="620.12" style="stroke: #000000; stroke-width: 0.8"/>
      </g>
     </g>
     <g id="text_4">
      <!-- 0.2 -->
      <g transform="translate(429.793909 634.718438) scale(0.1 -0.1)">
       <defs>
        <path id="DejaVuSans-32" d="M 1228 531 
L 3431 531 
L 3431 0 
L 469 0 
L 469 531 
Q 828 903 1448 1529 
Q 2069 2156 2228 2338 
Q 2531 2678 2651 2914 
Q 2772 3150 2772 3378 
Q 2772 3750 2511 3984 
Q 2250 4219 1831 4219 
Q 1534 4219 1204 4116 
Q 875 4013 500 3803 
L 500 4441 
Q 881 4594 1212 4672 
Q 1544 4750 1819 4750 
Q 2544 4750 2975 4387 
Q 3406 4025 3406 3419 
Q 3406 3131 3298 2873 
Q 3191 2616 2906 2266 
Q 2828 2175 2409 1742 
Q 1991 1309 1228 531 
z
" transform="scale(0.015625)"/>
       </defs>
       <use xlink:href="#DejaVuSans-30"/>
       <use xlink:href="#DejaVuSans-2e" x="63.623047"/>
       <use xlink:href="#DejaVuSans-32" x="95.410156"/>
      </g>
     </g>
    </g>
    <g id="xtick_5">
     <g id="line2d_5">
      <g>
       <use xlink:href="#m1f3aab1067" x="558.445241" y="620.12" style="stroke: #000000; stroke-width: 0.8"/>
      </g>
     </g>
     <g id="text_5">
      <!-- 0.3 -->
      <g transform="translate(550.493679 634.718438) scale(0.1 -0.1)">
       <defs>
        <path id="DejaVuSans-33" d="M 2597 2516 
Q 3050 2419 3304 2112 
Q 3559 1806 3559 1356 
Q 3559 666 3084 287 
Q 2609 -91 1734 -91 
Q 1441 -91 1130 -33 
Q 819 25 488 141 
L 488 750 
Q 750 597 1062 519 
Q 1375 441 1716 441 
Q 2309 441 2620 675 
Q 2931 909 2931 1356 
Q 2931 1769 2642 2001 
Q 2353 2234 1838 2234 
L 1294 2234 
L 1294 2753 
L 1863 2753 
Q 2328 2753 2575 2939 
Q 2822 3125 2822 3475 
Q 2822 3834 2567 4026 
Q 2313 4219 1838 4219 
Q 1578 4219 1281 4162 
Q 984 4106 628 3988 
L 628 4550 
Q 988 4650 1302 4700 
Q 1616 4750 1894 4750 
Q 2613 4750 3031 4423 
Q 3450 4097 3450 3541 
Q 3450 3153 3228 2886 
Q 3006 2619 2597 2516 
z
" transform="scale(0.015625)"/>
       </defs>
       <use xlink:href="#DejaVuSans-30"/>
       <use xlink:href="#DejaVuSans-2e" x="63.623047"/>
       <use xlink:href="#DejaVuSans-33" x="95.410156"/>
      </g>
     </g>
    </g>
   </g>
   <g id="matplotlib.axis_2">
    <g id="ytick_1">
     <g id="line2d_6">
      <defs>
       <path id="m1d3f185cf2" d="M 0 0 
L -3.5 0 
" style="stroke: #000000; stroke-width: 0.8"/>
      </defs>
      <g>
       <use xlink:href="#m1d3f185cf2" x="42.1" y="572.844513" style="stroke: #000000; stroke-width: 0.8"/>
      </g>
     </g>
     <g id="text_6">
      <!-- −0.2 -->
      <g transform="translate(10.817188 576.643732) scale(0.1 -0.1)">
       <use xlink:href="#DejaVuSans-2212"/>
       <use xlink:href="#DejaVuSans-30" x="83.789062"/>
       <use xlink:href="#DejaVuSans-2e" x="147.412109"/>
       <use xlink:href="#DejaVuSans-32" x="179.199219"/>
      </g>
     </g>
    </g>
    <g id="ytick_2">
     <g id="line2d_7">
      <g>
       <use xlink:href="#m1d3f185cf2" x="42.1" y="478.520599" style="stroke: #000000; stroke-width: 0.8"/>
      </g>
     </g>
     <g id="text_7">
      <!-- −0.1 -->
      <g transform="translate(10.817188 482.319817) scale(0.1 -0.1)">
       <use xlink:href="#DejaVuSans-2212"/>
       <use xlink:href="#DejaVuSans-30" x="83.789062"/>
       <use xlink:href="#DejaVuSans-2e" x="147.412109"/>
       <use xlink:href="#DejaVuSans-31" x="179.199219"/>
      </g>
     </g>
    </g>
    <g id="ytick_3">
     <g id="line2d_8">
      <g>
       <use xlink:href="#m1d3f185cf2" x="42.1" y="384.196684" style="stroke: #000000; stroke-width: 0.8"/>
      </g>
     </g>
     <g id="text_8">
      <!-- 0.0 -->
      <g transform="translate(19.196875 387.995903) scale(0.1 -0.1)">
       <use xlink:href="#DejaVuSans-30"/>
       <use xlink:href="#DejaVuSans-2e" x="63.623047"/>
       <use xlink:href="#DejaVuSans-30" x="95.410156"/>
      </g>
     </g>
    </g>
    <g id="ytick_4">
     <g id="line2d_9">
      <g>
       <use xlink:href="#m1d3f185cf2" x="42.1" y="289.87277" style="stroke: #000000; stroke-width: 0.8"/>
      </g>
     </g>
     <g id="text_9">
      <!-- 0.1 -->
      <g transform="translate(19.196875 293.671989) scale(0.1 -0.1)">
       <use xlink:href="#DejaVuSans-30"/>
       <use xlink:href="#DejaVuSans-2e" x="63.623047"/>
       <use xlink:href="#DejaVuSans-31" x="95.410156"/>
      </g>
     </g>
    </g>
    <g id="ytick_5">
     <g id="line2d_10">
      <g>
       <use xlink:href="#m1d3f185cf2" x="42.1" y="195.548856" style="stroke: #000000; stroke-width: 0.8"/>
      </g>
     </g>
     <g id="text_10">
      <!-- 0.2 -->
      <g transform="translate(19.196875 199.348074) scale(0.1 -0.1)">
       <use xlink:href="#DejaVuSans-30"/>
       <use xlink:href="#DejaVuSans-2e" x="63.623047"/>
       <use xlink:href="#DejaVuSans-32" x="95.410156"/>
      </g>
     </g>
    </g>
    <g id="ytick_6">
     <g id="line2d_11">
      <g>
       <use xlink:href="#m1d3f185cf2" x="42.1" y="101.224941" style="stroke: #000000; stroke-width: 0.8"/>
      </g>
     </g>
     <g id="text_11">
      <!-- 0.3 -->
      <g transform="translate(19.196875 105.02416) scale(0.1 -0.1)">
       <use xlink:href="#DejaVuSans-30"/>
       <use xlink:href="#DejaVuSans-2e" x="63.623047"/>
       <use xlink:href="#DejaVuSans-33" x="95.410156"/>
      </g>
     </g>
    </g>
   </g>
   <g id="patch_3">
    <path d="M 42.1 620.12 
L 42.1 25.44 
" style="fill: none; stroke: #000000; stroke-width: 0.8; stroke-linejoin: miter; stroke-linecap: square"/>
   </g>
   <g id="patch_4">
    <path d="M 616.917273 620.12 
L 616.917273 25.44 
" style="fill: none; stroke: #000000; stroke-width: 0.8; stroke-linejoin: miter; stroke-linecap: square"/>
   </g>
   <g id="patch_5">
    <path d="M 42.1 620.12 
L 616.917273 620.12 
" style="fill: none; stroke: #000000; stroke-width: 0.8; stroke-linejoin: miter; stroke-linecap: square"/>
   </g>
   <g id="patch_6">
    <path d="M 42.1 25.44 
L 616.917273 25.44 
" style="fill: none; stroke: #000000; stroke-width: 0.8; stroke-linejoin: miter; stroke-linecap: square"/>
   </g>
   <g id="text_12">
    <!-- D1-D4-D1hg-D4c-D1ju -->
    <g transform="translate(102.080724 372.039297) scale(0.1 -0.1)">
     <defs>
      <path id="DejaVuSans-44" d="M 1259 4147 
L 1259 519 
L 2022 519 
Q 2988 519 3436 956 
Q 3884 1394 3884 2338 
Q 3884 3275 3436 3711 
Q 2988 4147 2022 4147 
L 1259 4147 
z
M 628 4666 
L 1925 4666 
Q 3281 4666 3915 4102 
Q 4550 3538 4550 2338 
Q 4550 1131 3912 565 
Q 3275 0 1925 0 
L 628 0 
L 628 4666 
z
" transform="scale(0.015625)"/>
      <path id="DejaVuSans-2d" d="M 313 2009 
L 1997 2009 
L 1997 1497 
L 313 1497 
L 313 2009 
z
" transform="scale(0.015625)"/>
      <path id="DejaVuSans-34" d="M 2419 4116 
L 825 1625 
L 2419 1625 
L 2419 4116 
z
M 2253 4666 
L 3047 4666 
L 3047 1625 
L 3713 1625 
L 3713 1100 
L 3047 1100 
L 3047 0 
L 2419 0 
L 2419 1100 
L 313 1100 
L 313 1709 
L 2253 4666 
z
" transform="scale(0.015625)"/>
      <path id="DejaVuSans-68" d="M 3513 2113 
L 3513 0 
L 2938 0 
L 2938 2094 
Q 2938 2591 2744 2837 
Q 2550 3084 2163 3084 
Q 1697 3084 1428 2787 
Q 1159 2491 1159 1978 
L 1159 0 
L 581 0 
L 581 4863 
L 1159 4863 
L 1159 2956 
Q 1366 3272 1645 3428 
Q 1925 3584 2291 3584 
Q 2894 3584 3203 3211 
Q 3513 2838 3513 2113 
z
" transform="scale(0.015625)"/>
      <path id="DejaVuSans-67" d="M 2906 1791 
Q 2906 2416 2648 2759 
Q 2391 3103 1925 3103 
Q 1463 3103 1205 2759 
Q 947 2416 947 1791 
Q 947 1169 1205 825 
Q 1463 481 1925 481 
Q 2391 481 2648 825 
Q 2906 1169 2906 1791 
z
M 3481 434 
Q 3481 -459 3084 -895 
Q 2688 -1331 1869 -1331 
Q 1566 -1331 1297 -1286 
Q 1028 -1241 775 -1147 
L 775 -588 
Q 1028 -725 1275 -790 
Q 1522 -856 1778 -856 
Q 2344 -856 2625 -561 
Q 2906 -266 2906 331 
L 2906 616 
Q 2728 306 2450 153 
Q 2172 0 1784 0 
Q 1141 0 747 490 
Q 353 981 353 1791 
Q 353 2603 747 3093 
Q 1141 3584 1784 3584 
Q 2172 3584 2450 3431 
Q 2728 3278 2906 2969 
L 2906 3500 
L 3481 3500 
L 3481 434 
z
" transform="scale(0.015625)"/>
      <path id="DejaVuSans-63" d="M 3122 3366 
L 3122 2828 
Q 2878 2963 2633 3030 
Q 2388 3097 2138 3097 
Q 1578 3097 1268 2742 
Q 959 2388 959 1747 
Q 959 1106 1268 751 
Q 1578 397 2138 397 
Q 2388 397 2633 464 
Q 2878 531 3122 666 
L 3122 134 
Q 2881 22 2623 -34 
Q 2366 -91 2075 -91 
Q 1284 -91 818 406 
Q 353 903 353 1747 
Q 353 2603 823 3093 
Q 1294 3584 2113 3584 
Q 2378 3584 2631 3529 
Q 2884 3475 3122 3366 
z
" transform="scale(0.015625)"/>
      <path id="DejaVuSans-6a" d="M 603 3500 
L 1178 3500 
L 1178 -63 
Q 1178 -731 923 -1031 
Q 669 -1331 103 -1331 
L -116 -1331 
L -116 -844 
L 38 -844 
Q 366 -844 484 -692 
Q 603 -541 603 -63 
L 603 3500 
z
M 603 4863 
L 1178 4863 
L 1178 4134 
L 603 4134 
L 603 4863 
z
" transform="scale(0.015625)"/>
      <path id="DejaVuSans-75" d="M 544 1381 
L 544 3500 
L 1119 3500 
L 1119 1403 
Q 1119 906 1312 657 
Q 1506 409 1894 409 
Q 2359 409 2629 706 
Q 2900 1003 2900 1516 
L 2900 3500 
L 3475 3500 
L 3475 0 
L 2900 0 
L 2900 538 
Q 2691 219 2414 64 
Q 2138 -91 1772 -91 
Q 1169 -91 856 284 
Q 544 659 544 1381 
z
M 1991 3584 
L 1991 3584 
z
" transform="scale(0.015625)"/>
     </defs>
     <use xlink:href="#DejaVuSans-44"/>
     <use xlink:href="#DejaVuSans-31" x="77.001953"/>
     <use xlink:href="#DejaVuSans-2d" x="140.625"/>
     <use xlink:href="#DejaVuSans-44" x="176.708984"/>
     <use xlink:href="#DejaVuSans-34" x="253.710938"/>
     <use xlink:href="#DejaVuSans-2d" x="317.333984"/>
     <use xlink:href="#DejaVuSans-44" x="353.417969"/>
     <use xlink:href="#DejaVuSans-31" x="430.419922"/>
     <use xlink:href="#DejaVuSans-68" x="494.042969"/>
     <use xlink:href="#DejaVuSans-67" x="557.421875"/>
     <use xlink:href="#DejaVuSans-2d" x="620.898438"/>
     <use xlink:href="#DejaVuSans-44" x="656.982422"/>
     <use xlink:href="#DejaVuSans-34" x="733.984375"/>
     <use xlink:href="#DejaVuSans-63" x="797.607422"/>
     <use xlink:href="#DejaVuSans-2d" x="852.587891"/>
     <use xlink:href="#DejaVuSans-44" x="888.671875"/>
     <use xlink:href="#DejaVuSans-31" x="965.673828"/>
     <use xlink:href="#DejaVuSans-6a" x="1029.296875"/>
     <use xlink:href="#DejaVuSans-75" x="1057.080078"/>
    </g>
   </g>
   <g id="text_13">
    <!-- D1-D4-D4c-D1c -->
    <g transform="translate(183.310144 433.030738) scale(0.1 -0.1)">
     <use xlink:href="#DejaVuSans-44"/>
     <use xlink:href="#DejaVuSans-31" x="77.001953"/>
     <use xlink:href="#DejaVuSans-2d" x="140.625"/>
     <use xlink:href="#DejaVuSans-44" x="176.708984"/>
     <use xlink:href="#DejaVuSans-34" x="253.710938"/>
     <use xlink:href="#DejaVuSans-2d" x="317.333984"/>
     <use xlink:href="#DejaVuSans-44" x="353.417969"/>
     <use xlink:href="#DejaVuSans-34" x="430.419922"/>
     <use xlink:href="#DejaVuSans-63" x="494.042969"/>
     <use xlink:href="#DejaVuSans-2d" x="549.023438"/>
     <use xlink:href="#DejaVuSans-44" x="585.107422"/>
     <use xlink:href="#DejaVuSans-31" x="662.109375"/>
     <use xlink:href="#DejaVuSans-63" x="725.732422"/>
    </g>
   </g>
   <g id="text_14">
    <!-- D1-D4-D4c-D1c-D1k-D2 -->
    <g transform="translate(113.16054 397.956473) scale(0.1 -0.1)">
     <defs>
      <path id="DejaVuSans-6b" d="M 581 4863 
L 1159 4863 
L 1159 1991 
L 2875 3500 
L 3609 3500 
L 1753 1863 
L 3688 0 
L 2938 0 
L 1159 1709 
L 1159 0 
L 581 0 
L 581 4863 
z
" transform="scale(0.015625)"/>
     </defs>
     <use xlink:href="#DejaVuSans-44"/>
     <use xlink:href="#DejaVuSans-31" x="77.001953"/>
     <use xlink:href="#DejaVuSans-2d" x="140.625"/>
     <use xlink:href="#DejaVuSans-44" x="176.708984"/>
     <use xlink:href="#DejaVuSans-34" x="253.710938"/>
     <use xlink:href="#DejaVuSans-2d" x="317.333984"/>
     <use xlink:href="#DejaVuSans-44" x="353.417969"/>
     <use xlink:href="#DejaVuSans-34" x="430.419922"/>
     <use xlink:href="#DejaVuSans-63" x="494.042969"/>
     <use xlink:href="#DejaVuSans-2d" x="549.023438"/>
     <use xlink:href="#DejaVuSans-44" x="585.107422"/>
     <use xlink:href="#DejaVuSans-31" x="662.109375"/>
     <use xlink:href="#DejaVuSans-63" x="725.732422"/>
     <use xlink:href="#DejaVuSans-2d" x="780.712891"/>
     <use xlink:href="#DejaVuSans-44" x="816.796875"/>
     <use xlink:href="#DejaVuSans-31" x="893.798828"/>
     <use xlink:href="#DejaVuSans-6b" x="957.421875"/>
     <use xlink:href="#DejaVuSans-2d" x="1015.332031"/>
     <use xlink:href="#DejaVuSans-44" x="1051.416016"/>
     <use xlink:href="#DejaVuSans-32" x="1128.417969"/>
    </g>
   </g>
   <g id="text_15">
    <!-- D1/D2-D4-D4c-D1c -->
    <g transform="translate(133.17836 410.588089) scale(0.1 -0.1)">
     <defs>
      <path id="DejaVuSans-2f" d="M 1625 4666 
L 2156 4666 
L 531 -594 
L 0 -594 
L 1625 4666 
z
" transform="scale(0.015625)"/>
     </defs>
     <use xlink:href="#DejaVuSans-44"/>
     <use xlink:href="#DejaVuSans-31" x="77.001953"/>
     <use xlink:href="#DejaVuSans-2f" x="140.625"/>
     <use xlink:href="#DejaVuSans-44" x="174.316406"/>
     <use xlink:href="#DejaVuSans-32" x="251.318359"/>
     <use xlink:href="#DejaVuSans-2d" x="314.941406"/>
     <use xlink:href="#DejaVuSans-44" x="351.025391"/>
     <use xlink:href="#DejaVuSans-34" x="428.027344"/>
     <use xlink:href="#DejaVuSans-2d" x="491.650391"/>
     <use xlink:href="#DejaVuSans-44" x="527.734375"/>
     <use xlink:href="#DejaVuSans-34" x="604.736328"/>
     <use xlink:href="#DejaVuSans-63" x="668.359375"/>
     <use xlink:href="#DejaVuSans-2d" x="723.339844"/>
     <use xlink:href="#DejaVuSans-44" x="759.423828"/>
     <use xlink:href="#DejaVuSans-31" x="836.425781"/>
     <use xlink:href="#DejaVuSans-63" x="900.048828"/>
    </g>
   </g>
   <g id="text_16">
    <!-- D1-D1c -->
    <g transform="translate(476.607817 593.089091) scale(0.1 -0.1)">
     <use xlink:href="#DejaVuSans-44"/>
     <use xlink:href="#DejaVuSans-31" x="77.001953"/>
     <use xlink:href="#DejaVuSans-2d" x="140.625"/>
     <use xlink:href="#DejaVuSans-44" x="176.708984"/>
     <use xlink:href="#DejaVuSans-31" x="253.710938"/>
     <use xlink:href="#DejaVuSans-63" x="317.333984"/>
    </g>
   </g>
   <g id="text_17">
    <!-- D1-D4-D4c-D1c-D17d-D17j -->
    <g transform="translate(145.361941 408.471952) scale(0.1 -0.1)">
     <defs>
      <path id="DejaVuSans-37" d="M 525 4666 
L 3525 4666 
L 3525 4397 
L 1831 0 
L 1172 0 
L 2766 4134 
L 525 4134 
L 525 4666 
z
" transform="scale(0.015625)"/>
      <path id="DejaVuSans-64" d="M 2906 2969 
L 2906 4863 
L 3481 4863 
L 3481 0 
L 2906 0 
L 2906 525 
Q 2725 213 2448 61 
Q 2172 -91 1784 -91 
Q 1150 -91 751 415 
Q 353 922 353 1747 
Q 353 2572 751 3078 
Q 1150 3584 1784 3584 
Q 2172 3584 2448 3432 
Q 2725 3281 2906 2969 
z
M 947 1747 
Q 947 1113 1208 752 
Q 1469 391 1925 391 
Q 2381 391 2643 752 
Q 2906 1113 2906 1747 
Q 2906 2381 2643 2742 
Q 2381 3103 1925 3103 
Q 1469 3103 1208 2742 
Q 947 2381 947 1747 
z
" transform="scale(0.015625)"/>
     </defs>
     <use xlink:href="#DejaVuSans-44"/>
     <use xlink:href="#DejaVuSans-31" x="77.001953"/>
     <use xlink:href="#DejaVuSans-2d" x="140.625"/>
     <use xlink:href="#DejaVuSans-44" x="176.708984"/>
     <use xlink:href="#DejaVuSans-34" x="253.710938"/>
     <use xlink:href="#DejaVuSans-2d" x="317.333984"/>
     <use xlink:href="#DejaVuSans-44" x="353.417969"/>
     <use xlink:href="#DejaVuSans-34" x="430.419922"/>
     <use xlink:href="#DejaVuSans-63" x="494.042969"/>
     <use xlink:href="#DejaVuSans-2d" x="549.023438"/>
     <use xlink:href="#DejaVuSans-44" x="585.107422"/>
     <use xlink:href="#DejaVuSans-31" x="662.109375"/>
     <use xlink:href="#DejaVuSans-63" x="725.732422"/>
     <use xlink:href="#DejaVuSans-2d" x="780.712891"/>
     <use xlink:href="#DejaVuSans-44" x="816.796875"/>
     <use xlink:href="#DejaVuSans-31" x="893.798828"/>
     <use xlink:href="#DejaVuSans-37" x="957.421875"/>
     <use xlink:href="#DejaVuSans-64" x="1021.044922"/>
     <use xlink:href="#DejaVuSans-2d" x="1084.521484"/>
     <use xlink:href="#DejaVuSans-44" x="1120.605469"/>
     <use xlink:href="#DejaVuSans-31" x="1197.607422"/>
     <use xlink:href="#DejaVuSans-37" x="1261.230469"/>
     <use xlink:href="#DejaVuSans-6a" x="1324.853516"/>
    </g>
   </g>
   <g id="text_18">
    <!-- D1-D4-D4c-D1hg-D1c-D2 -->
    <g transform="translate(101.239169 390.343097) scale(0.1 -0.1)">
     <use xlink:href="#DejaVuSans-44"/>
     <use xlink:href="#DejaVuSans-31" x="77.001953"/>
     <use xlink:href="#DejaVuSans-2d" x="140.625"/>
     <use xlink:href="#DejaVuSans-44" x="176.708984"/>
     <use xlink:href="#DejaVuSans-34" x="253.710938"/>
     <use xlink:href="#DejaVuSans-2d" x="317.333984"/>
     <use xlink:href="#DejaVuSans-44" x="353.417969"/>
     <use xlink:href="#DejaVuSans-34" x="430.419922"/>
     <use xlink:href="#DejaVuSans-63" x="494.042969"/>
     <use xlink:href="#DejaVuSans-2d" x="549.023438"/>
     <use xlink:href="#DejaVuSans-44" x="585.107422"/>
     <use xlink:href="#DejaVuSans-31" x="662.109375"/>
     <use xlink:href="#DejaVuSans-68" x="725.732422"/>
     <use xlink:href="#DejaVuSans-67" x="789.111328"/>
     <use xlink:href="#DejaVuSans-2d" x="852.587891"/>
     <use xlink:href="#DejaVuSans-44" x="888.671875"/>
     <use xlink:href="#DejaVuSans-31" x="965.673828"/>
     <use xlink:href="#DejaVuSans-63" x="1029.296875"/>
     <use xlink:href="#DejaVuSans-2d" x="1084.277344"/>
     <use xlink:href="#DejaVuSans-44" x="1120.361328"/>
     <use xlink:href="#DejaVuSans-32" x="1197.363281"/>
    </g>
   </g>
   <g id="text_19">
    <!-- D1-D4-D4c-D1c-D6 -->
    <g transform="translate(217.169059 411.028463) scale(0.1 -0.1)">
     <defs>
      <path id="DejaVuSans-36" d="M 2113 2584 
Q 1688 2584 1439 2293 
Q 1191 2003 1191 1497 
Q 1191 994 1439 701 
Q 1688 409 2113 409 
Q 2538 409 2786 701 
Q 3034 994 3034 1497 
Q 3034 2003 2786 2293 
Q 2538 2584 2113 2584 
z
M 3366 4563 
L 3366 3988 
Q 3128 4100 2886 4159 
Q 2644 4219 2406 4219 
Q 1781 4219 1451 3797 
Q 1122 3375 1075 2522 
Q 1259 2794 1537 2939 
Q 1816 3084 2150 3084 
Q 2853 3084 3261 2657 
Q 3669 2231 3669 1497 
Q 3669 778 3244 343 
Q 2819 -91 2113 -91 
Q 1303 -91 875 529 
Q 447 1150 447 2328 
Q 447 3434 972 4092 
Q 1497 4750 2381 4750 
Q 2619 4750 2861 4703 
Q 3103 4656 3366 4563 
z
" transform="scale(0.015625)"/>
     </defs>
     <use xlink:href="#DejaVuSans-44"/>
     <use xlink:href="#DejaVuSans-31" x="77.001953"/>
     <use xlink:href="#DejaVuSans-2d" x="140.625"/>
     <use xlink:href="#DejaVuSans-44" x="176.708984"/>
     <use xlink:href="#DejaVuSans-34" x="253.710938"/>
     <use xlink:href="#DejaVuSans-2d" x="317.333984"/>
     <use xlink:href="#DejaVuSans-44" x="353.417969"/>
     <use xlink:href="#DejaVuSans-34" x="430.419922"/>
     <use xlink:href="#DejaVuSans-63" x="494.042969"/>
     <use xlink:href="#DejaVuSans-2d" x="549.023438"/>
     <use xlink:href="#DejaVuSans-44" x="585.107422"/>
     <use xlink:href="#DejaVuSans-31" x="662.109375"/>
     <use xlink:href="#DejaVuSans-63" x="725.732422"/>
     <use xlink:href="#DejaVuSans-2d" x="780.712891"/>
     <use xlink:href="#DejaVuSans-44" x="816.796875"/>
     <use xlink:href="#DejaVuSans-36" x="893.798828"/>
    </g>
   </g>
   <g id="text_20">
    <!-- D1-D1as-D6-D1bb-D4 -->
    <g transform="translate(465.429828 52.470909) scale(0.1 -0.1)">
     <defs>
      <path id="DejaVuSans-61" d="M 2194 1759 
Q 1497 1759 1228 1600 
Q 959 1441 959 1056 
Q 959 750 1161 570 
Q 1363 391 1709 391 
Q 2188 391 2477 730 
Q 2766 1069 2766 1631 
L 2766 1759 
L 2194 1759 
z
M 3341 1997 
L 3341 0 
L 2766 0 
L 2766 531 
Q 2569 213 2275 61 
Q 1981 -91 1556 -91 
Q 1019 -91 701 211 
Q 384 513 384 1019 
Q 384 1609 779 1909 
Q 1175 2209 1959 2209 
L 2766 2209 
L 2766 2266 
Q 2766 2663 2505 2880 
Q 2244 3097 1772 3097 
Q 1472 3097 1187 3025 
Q 903 2953 641 2809 
L 641 3341 
Q 956 3463 1253 3523 
Q 1550 3584 1831 3584 
Q 2591 3584 2966 3190 
Q 3341 2797 3341 1997 
z
" transform="scale(0.015625)"/>
      <path id="DejaVuSans-73" d="M 2834 3397 
L 2834 2853 
Q 2591 2978 2328 3040 
Q 2066 3103 1784 3103 
Q 1356 3103 1142 2972 
Q 928 2841 928 2578 
Q 928 2378 1081 2264 
Q 1234 2150 1697 2047 
L 1894 2003 
Q 2506 1872 2764 1633 
Q 3022 1394 3022 966 
Q 3022 478 2636 193 
Q 2250 -91 1575 -91 
Q 1294 -91 989 -36 
Q 684 19 347 128 
L 347 722 
Q 666 556 975 473 
Q 1284 391 1588 391 
Q 1994 391 2212 530 
Q 2431 669 2431 922 
Q 2431 1156 2273 1281 
Q 2116 1406 1581 1522 
L 1381 1569 
Q 847 1681 609 1914 
Q 372 2147 372 2553 
Q 372 3047 722 3315 
Q 1072 3584 1716 3584 
Q 2034 3584 2315 3537 
Q 2597 3491 2834 3397 
z
" transform="scale(0.015625)"/>
      <path id="DejaVuSans-62" d="M 3116 1747 
Q 3116 2381 2855 2742 
Q 2594 3103 2138 3103 
Q 1681 3103 1420 2742 
Q 1159 2381 1159 1747 
Q 1159 1113 1420 752 
Q 1681 391 2138 391 
Q 2594 391 2855 752 
Q 3116 1113 3116 1747 
z
M 1159 2969 
Q 1341 3281 1617 3432 
Q 1894 3584 2278 3584 
Q 2916 3584 3314 3078 
Q 3713 2572 3713 1747 
Q 3713 922 3314 415 
Q 2916 -91 2278 -91 
Q 1894 -91 1617 61 
Q 1341 213 1159 525 
L 1159 0 
L 581 0 
L 581 4863 
L 1159 4863 
L 1159 2969 
z
" transform="scale(0.015625)"/>
     </defs>
     <use xlink:href="#DejaVuSans-44"/>
     <use xlink:href="#DejaVuSans-31" x="77.001953"/>
     <use xlink:href="#DejaVuSans-2d" x="140.625"/>
     <use xlink:href="#DejaVuSans-44" x="176.708984"/>
     <use xlink:href="#DejaVuSans-31" x="253.710938"/>
     <use xlink:href="#DejaVuSans-61" x="317.333984"/>
     <use xlink:href="#DejaVuSans-73" x="378.613281"/>
     <use xlink:href="#DejaVuSans-2d" x="430.712891"/>
     <use xlink:href="#DejaVuSans-44" x="466.796875"/>
     <use xlink:href="#DejaVuSans-36" x="543.798828"/>
     <use xlink:href="#DejaVuSans-2d" x="607.421875"/>
     <use xlink:href="#DejaVuSans-44" x="643.505859"/>
     <use xlink:href="#DejaVuSans-31" x="720.507812"/>
     <use xlink:href="#DejaVuSans-62" x="784.130859"/>
     <use xlink:href="#DejaVuSans-62" x="847.607422"/>
     <use xlink:href="#DejaVuSans-2d" x="911.083984"/>
     <use xlink:href="#DejaVuSans-44" x="947.167969"/>
     <use xlink:href="#DejaVuSans-34" x="1024.169922"/>
    </g>
   </g>
   <g id="text_21">
    <!-- D1-D1as -->
    <g transform="translate(590.789215 448.700538) scale(0.1 -0.1)">
     <use xlink:href="#DejaVuSans-44"/>
     <use xlink:href="#DejaVuSans-31" x="77.001953"/>
     <use xlink:href="#DejaVuSans-2d" x="140.625"/>
     <use xlink:href="#DejaVuSans-44" x="176.708984"/>
     <use xlink:href="#DejaVuSans-31" x="253.710938"/>
     <use xlink:href="#DejaVuSans-61" x="317.333984"/>
     <use xlink:href="#DejaVuSans-73" x="378.613281"/>
    </g>
   </g>
   <g id="text_22">
    <!-- D1/D4-D4c-D2-D1c-D1h -->
    <g transform="translate(121.215405 400.441879) scale(0.1 -0.1)">
     <use xlink:href="#DejaVuSans-44"/>
     <use xlink:href="#DejaVuSans-31" x="77.001953"/>
     <use xlink:href="#DejaVuSans-2f" x="140.625"/>
     <use xlink:href="#DejaVuSans-44" x="174.316406"/>
     <use xlink:href="#DejaVuSans-34" x="251.318359"/>
     <use xlink:href="#DejaVuSans-2d" x="314.941406"/>
     <use xlink:href="#DejaVuSans-44" x="351.025391"/>
     <use xlink:href="#DejaVuSans-34" x="428.027344"/>
     <use xlink:href="#DejaVuSans-63" x="491.650391"/>
     <use xlink:href="#DejaVuSans-2d" x="546.630859"/>
     <use xlink:href="#DejaVuSans-44" x="582.714844"/>
     <use xlink:href="#DejaVuSans-32" x="659.716797"/>
     <use xlink:href="#DejaVuSans-2d" x="723.339844"/>
     <use xlink:href="#DejaVuSans-44" x="759.423828"/>
     <use xlink:href="#DejaVuSans-31" x="836.425781"/>
     <use xlink:href="#DejaVuSans-63" x="900.048828"/>
     <use xlink:href="#DejaVuSans-2d" x="955.029297"/>
     <use xlink:href="#DejaVuSans-44" x="991.113281"/>
     <use xlink:href="#DejaVuSans-31" x="1068.115234"/>
     <use xlink:href="#DejaVuSans-68" x="1131.738281"/>
    </g>
   </g>
   <g id="text_23">
    <!-- D1/D17d-D4-D1r-D17e-D17j-D17c-D17l -->
    <g transform="translate(111.923476 277.035221) scale(0.1 -0.1)">
     <defs>
      <path id="DejaVuSans-72" d="M 2631 2963 
Q 2534 3019 2420 3045 
Q 2306 3072 2169 3072 
Q 1681 3072 1420 2755 
Q 1159 2438 1159 1844 
L 1159 0 
L 581 0 
L 581 3500 
L 1159 3500 
L 1159 2956 
Q 1341 3275 1631 3429 
Q 1922 3584 2338 3584 
Q 2397 3584 2469 3576 
Q 2541 3569 2628 3553 
L 2631 2963 
z
" transform="scale(0.015625)"/>
      <path id="DejaVuSans-65" d="M 3597 1894 
L 3597 1613 
L 953 1613 
Q 991 1019 1311 708 
Q 1631 397 2203 397 
Q 2534 397 2845 478 
Q 3156 559 3463 722 
L 3463 178 
Q 3153 47 2828 -22 
Q 2503 -91 2169 -91 
Q 1331 -91 842 396 
Q 353 884 353 1716 
Q 353 2575 817 3079 
Q 1281 3584 2069 3584 
Q 2775 3584 3186 3129 
Q 3597 2675 3597 1894 
z
M 3022 2063 
Q 3016 2534 2758 2815 
Q 2500 3097 2075 3097 
Q 1594 3097 1305 2825 
Q 1016 2553 972 2059 
L 3022 2063 
z
" transform="scale(0.015625)"/>
      <path id="DejaVuSans-6c" d="M 603 4863 
L 1178 4863 
L 1178 0 
L 603 0 
L 603 4863 
z
" transform="scale(0.015625)"/>
     </defs>
     <use xlink:href="#DejaVuSans-44"/>
     <use xlink:href="#DejaVuSans-31" x="77.001953"/>
     <use xlink:href="#DejaVuSans-2f" x="140.625"/>
     <use xlink:href="#DejaVuSans-44" x="174.316406"/>
     <use xlink:href="#DejaVuSans-31" x="251.318359"/>
     <use xlink:href="#DejaVuSans-37" x="314.941406"/>
     <use xlink:href="#DejaVuSans-64" x="378.564453"/>
     <use xlink:href="#DejaVuSans-2d" x="442.041016"/>
     <use xlink:href="#DejaVuSans-44" x="478.125"/>
     <use xlink:href="#DejaVuSans-34" x="555.126953"/>
     <use xlink:href="#DejaVuSans-2d" x="618.75"/>
     <use xlink:href="#DejaVuSans-44" x="654.833984"/>
     <use xlink:href="#DejaVuSans-31" x="731.835938"/>
     <use xlink:href="#DejaVuSans-72" x="795.458984"/>
     <use xlink:href="#DejaVuSans-2d" x="830.197266"/>
     <use xlink:href="#DejaVuSans-44" x="866.28125"/>
     <use xlink:href="#DejaVuSans-31" x="943.283203"/>
     <use xlink:href="#DejaVuSans-37" x="1006.90625"/>
     <use xlink:href="#DejaVuSans-65" x="1070.529297"/>
     <use xlink:href="#DejaVuSans-2d" x="1132.052734"/>
     <use xlink:href="#DejaVuSans-44" x="1168.136719"/>
     <use xlink:href="#DejaVuSans-31" x="1245.138672"/>
     <use xlink:href="#DejaVuSans-37" x="1308.761719"/>
     <use xlink:href="#DejaVuSans-6a" x="1372.384766"/>
     <use xlink:href="#DejaVuSans-2d" x="1400.167969"/>
     <use xlink:href="#DejaVuSans-44" x="1436.251953"/>
     <use xlink:href="#DejaVuSans-31" x="1513.253906"/>
     <use xlink:href="#DejaVuSans-37" x="1576.876953"/>
     <use xlink:href="#DejaVuSans-63" x="1640.5"/>
     <use xlink:href="#DejaVuSans-2d" x="1695.480469"/>
     <use xlink:href="#DejaVuSans-44" x="1731.564453"/>
     <use xlink:href="#DejaVuSans-31" x="1808.566406"/>
     <use xlink:href="#DejaVuSans-37" x="1872.189453"/>
     <use xlink:href="#DejaVuSans-6c" x="1935.8125"/>
    </g>
   </g>
   <g id="text_24">
    <!-- D1-D4-D4c-D1c-D2-D17d -->
    <g transform="translate(130.111344 405.91844) scale(0.1 -0.1)">
     <use xlink:href="#DejaVuSans-44"/>
     <use xlink:href="#DejaVuSans-31" x="77.001953"/>
     <use xlink:href="#DejaVuSans-2d" x="140.625"/>
     <use xlink:href="#DejaVuSans-44" x="176.708984"/>
     <use xlink:href="#DejaVuSans-34" x="253.710938"/>
     <use xlink:href="#DejaVuSans-2d" x="317.333984"/>
     <use xlink:href="#DejaVuSans-44" x="353.417969"/>
     <use xlink:href="#DejaVuSans-34" x="430.419922"/>
     <use xlink:href="#DejaVuSans-63" x="494.042969"/>
     <use xlink:href="#DejaVuSans-2d" x="549.023438"/>
     <use xlink:href="#DejaVuSans-44" x="585.107422"/>
     <use xlink:href="#DejaVuSans-31" x="662.109375"/>
     <use xlink:href="#DejaVuSans-63" x="725.732422"/>
     <use xlink:href="#DejaVuSans-2d" x="780.712891"/>
     <use xlink:href="#DejaVuSans-44" x="816.796875"/>
     <use xlink:href="#DejaVuSans-32" x="893.798828"/>
     <use xlink:href="#DejaVuSans-2d" x="957.421875"/>
     <use xlink:href="#DejaVuSans-44" x="993.505859"/>
     <use xlink:href="#DejaVuSans-31" x="1070.507812"/>
     <use xlink:href="#DejaVuSans-37" x="1134.130859"/>
     <use xlink:href="#DejaVuSans-64" x="1197.753906"/>
    </g>
   </g>
   <g id="text_25">
    <!-- D1-D4-D4c-D2-D5 -->
    <g transform="translate(68.228058 350.429228) scale(0.1 -0.1)">
     <defs>
      <path id="DejaVuSans-35" d="M 691 4666 
L 3169 4666 
L 3169 4134 
L 1269 4134 
L 1269 2991 
Q 1406 3038 1543 3061 
Q 1681 3084 1819 3084 
Q 2600 3084 3056 2656 
Q 3513 2228 3513 1497 
Q 3513 744 3044 326 
Q 2575 -91 1722 -91 
Q 1428 -91 1123 -41 
Q 819 9 494 109 
L 494 744 
Q 775 591 1075 516 
Q 1375 441 1709 441 
Q 2250 441 2565 725 
Q 2881 1009 2881 1497 
Q 2881 1984 2565 2268 
Q 2250 2553 1709 2553 
Q 1456 2553 1204 2497 
Q 953 2441 691 2322 
L 691 4666 
z
" transform="scale(0.015625)"/>
     </defs>
     <use xlink:href="#DejaVuSans-44"/>
     <use xlink:href="#DejaVuSans-31" x="77.001953"/>
     <use xlink:href="#DejaVuSans-2d" x="140.625"/>
     <use xlink:href="#DejaVuSans-44" x="176.708984"/>
     <use xlink:href="#DejaVuSans-34" x="253.710938"/>
     <use xlink:href="#DejaVuSans-2d" x="317.333984"/>
     <use xlink:href="#DejaVuSans-44" x="353.417969"/>
     <use xlink:href="#DejaVuSans-34" x="430.419922"/>
     <use xlink:href="#DejaVuSans-63" x="494.042969"/>
     <use xlink:href="#DejaVuSans-2d" x="549.023438"/>
     <use xlink:href="#DejaVuSans-44" x="585.107422"/>
     <use xlink:href="#DejaVuSans-32" x="662.109375"/>
     <use xlink:href="#DejaVuSans-2d" x="725.732422"/>
     <use xlink:href="#DejaVuSans-44" x="761.816406"/>
     <use xlink:href="#DejaVuSans-35" x="838.818359"/>
    </g>
   </g>
   <g id="text_26">
    <!-- D1-D4-D4c-D2-D1c-D1ip -->
    <g transform="translate(112.88554 396.508182) scale(0.1 -0.1)">
     <defs>
      <path id="DejaVuSans-69" d="M 603 3500 
L 1178 3500 
L 1178 0 
L 603 0 
L 603 3500 
z
M 603 4863 
L 1178 4863 
L 1178 4134 
L 603 4134 
L 603 4863 
z
" transform="scale(0.015625)"/>
      <path id="DejaVuSans-70" d="M 1159 525 
L 1159 -1331 
L 581 -1331 
L 581 3500 
L 1159 3500 
L 1159 2969 
Q 1341 3281 1617 3432 
Q 1894 3584 2278 3584 
Q 2916 3584 3314 3078 
Q 3713 2572 3713 1747 
Q 3713 922 3314 415 
Q 2916 -91 2278 -91 
Q 1894 -91 1617 61 
Q 1341 213 1159 525 
z
M 3116 1747 
Q 3116 2381 2855 2742 
Q 2594 3103 2138 3103 
Q 1681 3103 1420 2742 
Q 1159 2381 1159 1747 
Q 1159 1113 1420 752 
Q 1681 391 2138 391 
Q 2594 391 2855 752 
Q 3116 1113 3116 1747 
z
" transform="scale(0.015625)"/>
     </defs>
     <use xlink:href="#DejaVuSans-44"/>
     <use xlink:href="#DejaVuSans-31" x="77.001953"/>
     <use xlink:href="#DejaVuSans-2d" x="140.625"/>
     <use xlink:href="#DejaVuSans-44" x="176.708984"/>
     <use xlink:href="#DejaVuSans-34" x="253.710938"/>
     <use xlink:href="#DejaVuSans-2d" x="317.333984"/>
     <use xlink:href="#DejaVuSans-44" x="353.417969"/>
     <use xlink:href="#DejaVuSans-34" x="430.419922"/>
     <use xlink:href="#DejaVuSans-63" x="494.042969"/>
     <use xlink:href="#DejaVuSans-2d" x="549.023438"/>
     <use xlink:href="#DejaVuSans-44" x="585.107422"/>
     <use xlink:href="#DejaVuSans-32" x="662.109375"/>
     <use xlink:href="#DejaVuSans-2d" x="725.732422"/>
     <use xlink:href="#DejaVuSans-44" x="761.816406"/>
     <use xlink:href="#DejaVuSans-31" x="838.818359"/>
     <use xlink:href="#DejaVuSans-63" x="902.441406"/>
     <use xlink:href="#DejaVuSans-2d" x="957.421875"/>
     <use xlink:href="#DejaVuSans-44" x="993.505859"/>
     <use xlink:href="#DejaVuSans-31" x="1070.507812"/>
     <use xlink:href="#DejaVuSans-69" x="1134.130859"/>
     <use xlink:href="#DejaVuSans-70" x="1161.914062"/>
    </g>
   </g>
   <g id="text_27">
    <!-- D1-D4-D4c-D1c-D17d-D1r-D17c-D17e -->
    <g transform="translate(122.036794 386.737548) scale(0.1 -0.1)">
     <use xlink:href="#DejaVuSans-44"/>
     <use xlink:href="#DejaVuSans-31" x="77.001953"/>
     <use xlink:href="#DejaVuSans-2d" x="140.625"/>
     <use xlink:href="#DejaVuSans-44" x="176.708984"/>
     <use xlink:href="#DejaVuSans-34" x="253.710938"/>
     <use xlink:href="#DejaVuSans-2d" x="317.333984"/>
     <use xlink:href="#DejaVuSans-44" x="353.417969"/>
     <use xlink:href="#DejaVuSans-34" x="430.419922"/>
     <use xlink:href="#DejaVuSans-63" x="494.042969"/>
     <use xlink:href="#DejaVuSans-2d" x="549.023438"/>
     <use xlink:href="#DejaVuSans-44" x="585.107422"/>
     <use xlink:href="#DejaVuSans-31" x="662.109375"/>
     <use xlink:href="#DejaVuSans-63" x="725.732422"/>
     <use xlink:href="#DejaVuSans-2d" x="780.712891"/>
     <use xlink:href="#DejaVuSans-44" x="816.796875"/>
     <use xlink:href="#DejaVuSans-31" x="893.798828"/>
     <use xlink:href="#DejaVuSans-37" x="957.421875"/>
     <use xlink:href="#DejaVuSans-64" x="1021.044922"/>
     <use xlink:href="#DejaVuSans-2d" x="1084.521484"/>
     <use xlink:href="#DejaVuSans-44" x="1120.605469"/>
     <use xlink:href="#DejaVuSans-31" x="1197.607422"/>
     <use xlink:href="#DejaVuSans-72" x="1261.230469"/>
     <use xlink:href="#DejaVuSans-2d" x="1295.96875"/>
     <use xlink:href="#DejaVuSans-44" x="1332.052734"/>
     <use xlink:href="#DejaVuSans-31" x="1409.054688"/>
     <use xlink:href="#DejaVuSans-37" x="1472.677734"/>
     <use xlink:href="#DejaVuSans-63" x="1536.300781"/>
     <use xlink:href="#DejaVuSans-2d" x="1591.28125"/>
     <use xlink:href="#DejaVuSans-44" x="1627.365234"/>
     <use xlink:href="#DejaVuSans-31" x="1704.367188"/>
     <use xlink:href="#DejaVuSans-37" x="1767.990234"/>
     <use xlink:href="#DejaVuSans-65" x="1831.613281"/>
    </g>
   </g>
   <g id="text_28">
    <!-- D1-D4-D4f-D1c -->
    <g transform="translate(143.153422 396.554488) scale(0.1 -0.1)">
     <defs>
      <path id="DejaVuSans-66" d="M 2375 4863 
L 2375 4384 
L 1825 4384 
Q 1516 4384 1395 4259 
Q 1275 4134 1275 3809 
L 1275 3500 
L 2222 3500 
L 2222 3053 
L 1275 3053 
L 1275 0 
L 697 0 
L 697 3053 
L 147 3053 
L 147 3500 
L 697 3500 
L 697 3744 
Q 697 4328 969 4595 
Q 1241 4863 1831 4863 
L 2375 4863 
z
" transform="scale(0.015625)"/>
     </defs>
     <use xlink:href="#DejaVuSans-44"/>
     <use xlink:href="#DejaVuSans-31" x="77.001953"/>
     <use xlink:href="#DejaVuSans-2d" x="140.625"/>
     <use xlink:href="#DejaVuSans-44" x="176.708984"/>
     <use xlink:href="#DejaVuSans-34" x="253.710938"/>
     <use xlink:href="#DejaVuSans-2d" x="317.333984"/>
     <use xlink:href="#DejaVuSans-44" x="353.417969"/>
     <use xlink:href="#DejaVuSans-34" x="430.419922"/>
     <use xlink:href="#DejaVuSans-66" x="494.042969"/>
     <use xlink:href="#DejaVuSans-2d" x="523.748047"/>
     <use xlink:href="#DejaVuSans-44" x="559.832031"/>
     <use xlink:href="#DejaVuSans-31" x="636.833984"/>
     <use xlink:href="#DejaVuSans-63" x="700.457031"/>
    </g>
   </g>
   <g id="text_29">
    <!-- between its2 type profile distances clade D braycurtis no_sqrt -->
    <g transform="translate(143.233949 19.44) scale(0.12 -0.12)">
     <defs>
      <path id="DejaVuSans-74" d="M 1172 4494 
L 1172 3500 
L 2356 3500 
L 2356 3053 
L 1172 3053 
L 1172 1153 
Q 1172 725 1289 603 
Q 1406 481 1766 481 
L 2356 481 
L 2356 0 
L 1766 0 
Q 1100 0 847 248 
Q 594 497 594 1153 
L 594 3053 
L 172 3053 
L 172 3500 
L 594 3500 
L 594 4494 
L 1172 4494 
z
" transform="scale(0.015625)"/>
      <path id="DejaVuSans-77" d="M 269 3500 
L 844 3500 
L 1563 769 
L 2278 3500 
L 2956 3500 
L 3675 769 
L 4391 3500 
L 4966 3500 
L 4050 0 
L 3372 0 
L 2619 2869 
L 1863 0 
L 1184 0 
L 269 3500 
z
" transform="scale(0.015625)"/>
      <path id="DejaVuSans-6e" d="M 3513 2113 
L 3513 0 
L 2938 0 
L 2938 2094 
Q 2938 2591 2744 2837 
Q 2550 3084 2163 3084 
Q 1697 3084 1428 2787 
Q 1159 2491 1159 1978 
L 1159 0 
L 581 0 
L 581 3500 
L 1159 3500 
L 1159 2956 
Q 1366 3272 1645 3428 
Q 1925 3584 2291 3584 
Q 2894 3584 3203 3211 
Q 3513 2838 3513 2113 
z
" transform="scale(0.015625)"/>
      <path id="DejaVuSans-20" transform="scale(0.015625)"/>
      <path id="DejaVuSans-79" d="M 2059 -325 
Q 1816 -950 1584 -1140 
Q 1353 -1331 966 -1331 
L 506 -1331 
L 506 -850 
L 844 -850 
Q 1081 -850 1212 -737 
Q 1344 -625 1503 -206 
L 1606 56 
L 191 3500 
L 800 3500 
L 1894 763 
L 2988 3500 
L 3597 3500 
L 2059 -325 
z
" transform="scale(0.015625)"/>
      <path id="DejaVuSans-6f" d="M 1959 3097 
Q 1497 3097 1228 2736 
Q 959 2375 959 1747 
Q 959 1119 1226 758 
Q 1494 397 1959 397 
Q 2419 397 2687 759 
Q 2956 1122 2956 1747 
Q 2956 2369 2687 2733 
Q 2419 3097 1959 3097 
z
M 1959 3584 
Q 2709 3584 3137 3096 
Q 3566 2609 3566 1747 
Q 3566 888 3137 398 
Q 2709 -91 1959 -91 
Q 1206 -91 779 398 
Q 353 888 353 1747 
Q 353 2609 779 3096 
Q 1206 3584 1959 3584 
z
" transform="scale(0.015625)"/>
      <path id="DejaVuSans-5f" d="M 3263 -1063 
L 3263 -1509 
L -63 -1509 
L -63 -1063 
L 3263 -1063 
z
" transform="scale(0.015625)"/>
      <path id="DejaVuSans-71" d="M 947 1747 
Q 947 1113 1208 752 
Q 1469 391 1925 391 
Q 2381 391 2643 752 
Q 2906 1113 2906 1747 
Q 2906 2381 2643 2742 
Q 2381 3103 1925 3103 
Q 1469 3103 1208 2742 
Q 947 2381 947 1747 
z
M 2906 525 
Q 2725 213 2448 61 
Q 2172 -91 1784 -91 
Q 1150 -91 751 415 
Q 353 922 353 1747 
Q 353 2572 751 3078 
Q 1150 3584 1784 3584 
Q 2172 3584 2448 3432 
Q 2725 3281 2906 2969 
L 2906 3500 
L 3481 3500 
L 3481 -1331 
L 2906 -1331 
L 2906 525 
z
" transform="scale(0.015625)"/>
     </defs>
     <use xlink:href="#DejaVuSans-62"/>
     <use xlink:href="#DejaVuSans-65" x="63.476562"/>
     <use xlink:href="#DejaVuSans-74" x="125"/>
     <use xlink:href="#DejaVuSans-77" x="164.208984"/>
     <use xlink:href="#DejaVuSans-65" x="245.996094"/>
     <use xlink:href="#DejaVuSans-65" x="307.519531"/>
     <use xlink:href="#DejaVuSans-6e" x="369.042969"/>
     <use xlink:href="#DejaVuSans-20" x="432.421875"/>
     <use xlink:href="#DejaVuSans-69" x="464.208984"/>
     <use xlink:href="#DejaVuSans-74" x="491.992188"/>
     <use xlink:href="#DejaVuSans-73" x="531.201172"/>
     <use xlink:href="#DejaVuSans-32" x="583.300781"/>
     <use xlink:href="#DejaVuSans-20" x="646.923828"/>
     <use xlink:href="#DejaVuSans-74" x="678.710938"/>
     <use xlink:href="#DejaVuSans-79" x="717.919922"/>
     <use xlink:href="#DejaVuSans-70" x="777.099609"/>
     <use xlink:href="#DejaVuSans-65" x="840.576172"/>
     <use xlink:href="#DejaVuSans-20" x="902.099609"/>
     <use xlink:href="#DejaVuSans-70" x="933.886719"/>
     <use xlink:href="#DejaVuSans-72" x="997.363281"/>
     <use xlink:href="#DejaVuSans-6f" x="1036.226562"/>
     <use xlink:href="#DejaVuSans-66" x="1097.408203"/>
     <use xlink:href="#DejaVuSans-69" x="1132.613281"/>
     <use xlink:href="#DejaVuSans-6c" x="1160.396484"/>
     <use xlink:href="#DejaVuSans-65" x="1188.179688"/>
     <use xlink:href="#DejaVuSans-20" x="1249.703125"/>
     <use xlink:href="#DejaVuSans-64" x="1281.490234"/>
     <use xlink:href="#DejaVuSans-69" x="1344.966797"/>
     <use xlink:href="#DejaVuSans-73" x="1372.75"/>
     <use xlink:href="#DejaVuSans-74" x="1424.849609"/>
     <use xlink:href="#DejaVuSans-61" x="1464.058594"/>
     <use xlink:href="#DejaVuSans-6e" x="1525.337891"/>
     <use xlink:href="#DejaVuSans-63" x="1588.716797"/>
     <use xlink:href="#DejaVuSans-65" x="1643.697266"/>
     <use xlink:href="#DejaVuSans-73" x="1705.220703"/>
     <use xlink:href="#DejaVuSans-20" x="1757.320312"/>
     <use xlink:href="#DejaVuSans-63" x="1789.107422"/>
     <use xlink:href="#DejaVuSans-6c" x="1844.087891"/>
     <use xlink:href="#DejaVuSans-61" x="1871.871094"/>
     <use xlink:href="#DejaVuSans-64" x="1933.150391"/>
     <use xlink:href="#DejaVuSans-65" x="1996.626953"/>
     <use xlink:href="#DejaVuSans-20" x="2058.150391"/>
     <use xlink:href="#DejaVuSans-44" x="2089.9375"/>
     <use xlink:href="#DejaVuSans-20" x="2166.939453"/>
     <use xlink:href="#DejaVuSans-62" x="2198.726562"/>
     <use xlink:href="#DejaVuSans-72" x="2262.203125"/>
     <use xlink:href="#DejaVuSans-61" x="2303.316406"/>
     <use xlink:href="#DejaVuSans-79" x="2364.595703"/>
     <use xlink:href="#DejaVuSans-63" x="2423.775391"/>
     <use xlink:href="#DejaVuSans-75" x="2478.755859"/>
     <use xlink:href="#DejaVuSans-72" x="2542.134766"/>
     <use xlink:href="#DejaVuSans-74" x="2583.248047"/>
     <use xlink:href="#DejaVuSans-69" x="2622.457031"/>
     <use xlink:href="#DejaVuSans-73" x="2650.240234"/>
     <use xlink:href="#DejaVuSans-20" x="2702.339844"/>
     <use xlink:href="#DejaVuSans-6e" x="2734.126953"/>
     <use xlink:href="#DejaVuSans-6f" x="2797.505859"/>
     <use xlink:href="#DejaVuSans-5f" x="2858.6875"/>
     <use xlink:href="#DejaVuSans-73" x="2908.6875"/>
     <use xlink:href="#DejaVuSans-71" x="2960.787109"/>
     <use xlink:href="#DejaVuSans-72" x="3024.263672"/>
     <use xlink:href="#DejaVuSans-74" x="3065.376953"/>
    </g>
   </g>
  </g>
 </g>
 <defs>
  <clipPath id="p1aef5f60b9">
   <rect x="42.1" y="25.44" width="574.817273" height="594.68"/>
  </clipPath>
 </defs>
</svg>
